<svg xmlns="http://www.w3.org/2000/svg" xmlns:xlink="http://www.w3.org/1999/xlink" xmlns:fi="http://pattern.flaticon.com/" x="0" y="0" width="1200" height="1200" viewBox="0 0 1596.958174904943 1596.958174904943"><rect x="0px" y="0px" width="100%" height="100%" opacity="1" fill="#ffffff"/><defs><path d="M165,0C74.019,0,0,74.019,0,165s74.019,165,165,165c90.982,0,165-74.019,165-165S255.982,0,165,0z" transform="matrix(0.03030303120613098 0 0 0.03030303120613098 345 82.5)" id="L1_319" fill="#5c0169"/><g transform="matrix(0.10869564861059189 0 0 0.10869564861059189 242.5 67.5)" id="L1_317"><circle cx="112" cy="304" r="16"/><path d="M216.004,272c-4.416,0-8,3.584-8,8v48c0,13.232-10.768,24-24,24h-144c-13.232,0-24-10.768-24-24v-88c0-4.416-3.584-8-8-8    s-8,3.584-8,8v88c0,22.056,17.944,40,40,40h144c22.056,0,40-17.944,40-40v-48C224.004,275.584,220.42,272,216.004,272z"/><path d="M344.004,127.992H216.02c4.408-0.008,7.984-3.584,7.984-7.992V40c0-22.056-17.944-40-40.032-40    C182.54,0,40.004,0,40.004,0s0,0-0.008,0c-10.68,0-20.72,4.16-28.272,11.712C4.172,19.264,0.004,29.32,0.004,40v15.984    c0,0.008,0,0.008,0,0.016s0,0.008,0,0.016V120c0,4.416,3.584,8,8,8s8-3.584,8-8V64h192v56c0,4.408,3.576,7.984,7.984,8H88.004    c-0.096,0-0.192,0.04-0.288,0.04c-0.216,0.008-0.424,0.064-0.64,0.088c-0.776,0.096-1.512,0.296-2.232,0.608    c-0.136,0.056-0.28,0.048-0.416,0.112c-0.072,0.04-0.112,0.104-0.184,0.144c-0.112,0.064-0.24,0.088-0.352,0.152l-48,28.8    l-32,19.2c-2.416,1.432-3.888,4.04-3.888,6.848s1.472,5.416,3.88,6.856l32,19.2l48,28.8c0.112,0.064,0.24,0.088,0.352,0.152    c0.072,0.04,0.112,0.112,0.184,0.144c0.312,0.16,0.64,0.24,0.968,0.352c0.208,0.072,0.408,0.168,0.624,0.224    c0.656,0.168,1.32,0.272,1.984,0.272h256c13.232,0,24-10.768,24-24v-64C368.004,138.76,357.236,127.992,344.004,127.992z     M207.996,48H16.004v-8c0-6.408,2.496-12.44,7.024-16.968C27.564,18.504,33.588,16,39.996,16c102.656,0,133.776,0,144-0.792V16    c13.232,0,24,10.768,24,24V48z M32.004,189.064l-8.456-5.072l8.456-5.072V189.064z M84.708,220.688l-36.704-22.024V169.32    l36.704-22.024l18.344,36.696L84.708,220.688z M304.004,223.992H100.948l16-32h187.056V223.992z M304.004,175.992H116.948l-16-32    h203.056V175.992z M352.004,215.992c0,4.408-3.592,8-8,8h-24v-80h24c4.408,0,8,3.592,8,8V215.992z"/><path d="M312.004,48h-32c-4.416,0-8,3.584-8,8s3.584,8,8,8h24v24c0,4.416,3.584,8,8,8c4.416,0,8-3.584,8-8V56    C320.004,51.584,316.42,48,312.004,48z"/><path d="M312.004,272c-4.416,0-8,3.584-8,8v24h-24c-4.416,0-8,3.584-8,8c0,4.416,3.584,8,8,8h32c4.416,0,8-3.584,8-8v-32    C320.004,275.584,316.42,272,312.004,272z"/></g><g transform="matrix(0.054347824305295944 0 0 0.054347824305295944 165 165)" id="L1_318"><path d="M200,160h-32c-4.416,0-8,3.584-8,8v32c0,4.416,3.584,8,8,8h32c4.424,0,8-3.584,8-8v-32C208,163.584,204.424,160,200,160z     M192,192h-16v-16h16V192z"/><path d="M360,176H256v-32h40c4.424,0,8-3.584,8-8v-32c0-4.416-3.576-8-8-8s-8,3.584-8,8v24h-32v-8c0-4.416-3.576-8-8-8h-8V16h40    c4.424,0,8-3.584,8-8s-3.576-8-8-8h-48c-4.424,0-8,3.584-8,8v104h-32V8c0-4.416-3.584-8-8-8c-4.416,0-8,3.584-8,8v104h-32V40    c0-4.416-3.584-8-8-8s-8,3.584-8,8v72h-8c-4.416,0-8,3.584-8,8v8H40c-4.416,0-8,3.584-8,8s3.584,8,8,8h72v32H8    c-4.416,0-8,3.584-8,8s3.584,8,8,8h104v32H72c-4.416,0-8,3.584-8,8v32c0,4.416,3.584,8,8,8s8-3.584,8-8v-24h32v8    c0,4.416,3.584,8,8,8h8v96H88c-4.416,0-8,3.584-8,8c0,4.416,3.584,8,8,8h48c4.416,0,8-3.584,8-8V256h32v104c0,4.416,3.584,8,8,8    s8-3.584,8-8V256h32v72c0,4.416,3.576,8,8,8s8-3.584,8-8v-72h8c4.424,0,8-3.584,8-8v-8h72c4.424,0,8-3.584,8-8    c0-4.416-3.576-8-8-8h-72v-32h104c4.424,0,8-3.584,8-8C368,179.584,364.424,176,360,176z M240,240h-7.984    c-0.008,0-0.016,0-0.016,0h-0.016h-47.96c-0.008,0-0.016,0-0.016,0h-0.016h-47.96c-0.008,0-0.016,0-0.016,0H136h-8v-7.984    c0-0.008,0-0.016,0-0.016v-0.016v-47.96c0-0.008,0-0.016,0-0.016v-0.016v-47.96c0-0.008,0-0.016,0-0.016V136v-8h112V240z"/></g><path d="M165,0C74.019,0,0,74.019,0,165s74.019,165,165,165c90.982,0,165-74.019,165-165S255.982,0,165,0z" transform="matrix(0.03030303120613098 0 0 0.03030303120613098 82.5 257.5)" id="L1_320" fill="#d652aa"/><g transform="matrix(0.2445652186870575 0 0 0.2445652186870575 305 305)" id="L1_321"><path d="M312,176h-24.64c-1.36-9.464-5.088-18.152-10.576-25.472l17.448-17.44c3.128-3.12,3.128-8.184,0-11.312    s-8.184-3.128-11.312,0l-17.448,17.44c-7.32-5.488-16.008-9.216-25.472-10.576V104c0-4.416-3.576-8-8-8s-8,3.584-8,8v24.64    c-9.464,1.36-18.144,5.088-25.472,10.576l-17.432-17.44c-3.128-3.128-8.184-3.128-11.312,0c-3.128,3.12-3.128,8.184,0,11.312    l17.432,17.44c-5.488,7.32-9.208,16.008-10.576,25.472H152c-4.424,0-8,3.584-8,8c0,4.424,3.584,8,8,8l24.64-0.008    c1.36,9.464,5.088,18.152,10.576,25.48l-17.432,17.44c-3.128,3.128-3.128,8.192,0,11.312c1.56,1.56,3.608,2.344,5.656,2.344    c2.048,0,4.096-0.784,5.656-2.344l17.432-17.44c7.32,5.488,16.008,9.208,25.472,10.576V264c0,4.416,3.576,8,8,8s8-3.584,8-8    v-24.64c9.464-1.36,18.144-5.088,25.472-10.576l17.448,17.44c1.56,1.56,3.608,2.336,5.656,2.336c2.048,0,4.096-0.784,5.656-2.344    c3.128-3.128,3.128-8.192,0-11.32l-17.448-17.44c5.488-7.32,9.208-16.008,10.576-25.472H312V192c4.424,0,8-3.584,8-8    C320,179.584,316.424,176,312,176z M232,224c-22.056,0-40-17.944-40-40c0-22.056,17.944-40,40-40c22.056,0,40,17.944,40,40    C272,206.056,254.056,224,232,224z"/><path d="M312,88c4.424,0,8-3.584,8-8V24c0-13.232-10.768-24-24-24H72C58.768,0,48,10.768,48,24v288c0,2.12,0.84,4.16,2.344,5.656    l48,48C99.84,367.16,101.872,368,104,368h192c13.232,0,24-10.768,24-24v-56c0-4.416-3.576-8-8-8s-8,3.584-8,8v56    c0,4.408-3.584,8-8,8H128v-56c0-4.416-3.576-8-8-8H64V24c0-4.408,3.584-8,8-8h224c4.416,0,8,3.592,8,8v56    C304,84.416,307.576,88,312,88z M112,304v48h-4.688L64,308.68V304H112z"/><path d="M264,48H104c-4.424,0-8,3.584-8,8v192c0,4.416,3.576,8,8,8s8-3.584,8-8V64h152c4.424,0,8-3.584,8-8S268.424,48,264,48z"/><path d="M264,304h-96c-4.424,0-8,3.584-8,8c0,4.416,3.576,8,8,8h96c4.424,0,8-3.584,8-8C272,307.584,268.424,304,264,304z"/></g><g transform="matrix(-0.16304348409175873 0 0 0.16304348409175873 117.50000214576721 57.5)" id="L1_322"><path d="M312,176h-24.64c-1.36-9.464-5.088-18.152-10.576-25.472l17.448-17.44c3.128-3.12,3.128-8.184,0-11.312    s-8.184-3.128-11.312,0l-17.448,17.44c-7.32-5.488-16.008-9.216-25.472-10.576V104c0-4.416-3.576-8-8-8s-8,3.584-8,8v24.64    c-9.464,1.36-18.144,5.088-25.472,10.576l-17.432-17.44c-3.128-3.128-8.184-3.128-11.312,0c-3.128,3.12-3.128,8.184,0,11.312    l17.432,17.44c-5.488,7.32-9.208,16.008-10.576,25.472H152c-4.424,0-8,3.584-8,8c0,4.424,3.584,8,8,8l24.64-0.008    c1.36,9.464,5.088,18.152,10.576,25.48l-17.432,17.44c-3.128,3.128-3.128,8.192,0,11.312c1.56,1.56,3.608,2.344,5.656,2.344    c2.048,0,4.096-0.784,5.656-2.344l17.432-17.44c7.32,5.488,16.008,9.208,25.472,10.576V264c0,4.416,3.576,8,8,8s8-3.584,8-8    v-24.64c9.464-1.36,18.144-5.088,25.472-10.576l17.448,17.44c1.56,1.56,3.608,2.336,5.656,2.336c2.048,0,4.096-0.784,5.656-2.344    c3.128-3.128,3.128-8.192,0-11.32l-17.448-17.44c5.488-7.32,9.208-16.008,10.576-25.472H312V192c4.424,0,8-3.584,8-8    C320,179.584,316.424,176,312,176z M232,224c-22.056,0-40-17.944-40-40c0-22.056,17.944-40,40-40c22.056,0,40,17.944,40,40    C272,206.056,254.056,224,232,224z"/><path d="M312,88c4.424,0,8-3.584,8-8V24c0-13.232-10.768-24-24-24H72C58.768,0,48,10.768,48,24v288c0,2.12,0.84,4.16,2.344,5.656    l48,48C99.84,367.16,101.872,368,104,368h192c13.232,0,24-10.768,24-24v-56c0-4.416-3.576-8-8-8s-8,3.584-8,8v56    c0,4.408-3.584,8-8,8H128v-56c0-4.416-3.576-8-8-8H64V24c0-4.408,3.584-8,8-8h224c4.416,0,8,3.592,8,8v56    C304,84.416,307.576,88,312,88z M112,304v48h-4.688L64,308.68V304H112z"/><path d="M264,48H104c-4.424,0-8,3.584-8,8v192c0,4.416,3.576,8,8,8s8-3.584,8-8V64h152c4.424,0,8-3.584,8-8S268.424,48,264,48z"/><path d="M264,304h-96c-4.424,0-8,3.584-8,8c0,4.416,3.576,8,8,8h96c4.424,0,8-3.584,8-8C272,307.584,268.424,304,264,304z"/></g><g transform="matrix(0.054347824305295944 0 0 0.054347824305295944 340 165)" id="L1_323"><path d="M344,0H24C10.768,0,0,10.768,0,24v320c0,13.232,10.768,24,24,24h320c13.232,0,24-10.768,24-24V24    C368,10.768,357.232,0,344,0z M80,16h48v48H80V16z M16,24c0-4.408,3.584-8,8-8h40v48H16V24z M352,344c0,4.408-3.584,8-8,8H24    c-4.416,0-8-3.592-8-8V80h336V344z M352,64H144V16h200c4.416,0,8,3.592,8,8V64z"/><path d="M317.2,209.928l-56-48c-3.344-2.864-8.408-2.488-11.272,0.864c-2.88,3.352-2.496,8.408,0.864,11.28L299.712,216    L250.8,257.928c-3.36,2.872-3.752,7.928-0.864,11.28c1.568,1.84,3.816,2.792,6.064,2.792c1.84,0,3.696-0.632,5.2-1.928l56-48    c1.776-1.52,2.8-3.736,2.8-6.072S318.976,211.448,317.2,209.928z"/><path d="M117.208,257.928L68.288,216l48.912-41.928c3.36-2.872,3.752-7.92,0.872-11.28c-2.864-3.352-7.92-3.736-11.272-0.864    l-56,48c-1.776,1.52-2.8,3.736-2.8,6.072s1.024,4.552,2.8,6.072l56,48c1.504,1.296,3.36,1.928,5.2,1.928    c2.248,0,4.496-0.952,6.072-2.792C120.952,265.856,120.568,260.8,117.208,257.928z"/><path d="M210.816,144.504c-4.144-1.536-8.752,0.536-10.304,4.68l-48,128c-1.544,4.136,0.544,8.744,4.68,10.304    C158.12,287.832,159.064,288,160,288c3.232,0,6.288-1.984,7.496-5.192l48-128C217.04,150.672,214.944,146.064,210.816,144.504z"/></g><g transform="matrix(-0.16304348409175873 0 0 0.16304348409175873 205.0000021457672 232.5)" id="L1_324"><path d="M344,0H24C10.768,0,0,10.768,0,24v320c0,13.232,10.768,24,24,24h320c13.232,0,24-10.768,24-24V24    C368,10.768,357.232,0,344,0z M80,16h48v48H80V16z M16,24c0-4.408,3.584-8,8-8h40v48H16V24z M352,344c0,4.408-3.584,8-8,8H24    c-4.416,0-8-3.592-8-8V80h336V344z M352,64H144V16h200c4.416,0,8,3.592,8,8V64z"/><path d="M317.2,209.928l-56-48c-3.344-2.864-8.408-2.488-11.272,0.864c-2.88,3.352-2.496,8.408,0.864,11.28L299.712,216    L250.8,257.928c-3.36,2.872-3.752,7.928-0.864,11.28c1.568,1.84,3.816,2.792,6.064,2.792c1.84,0,3.696-0.632,5.2-1.928l56-48    c1.776-1.52,2.8-3.736,2.8-6.072S318.976,211.448,317.2,209.928z"/><path d="M117.208,257.928L68.288,216l48.912-41.928c3.36-2.872,3.752-7.92,0.872-11.28c-2.864-3.352-7.92-3.736-11.272-0.864    l-56,48c-1.776,1.52-2.8,3.736-2.8,6.072s1.024,4.552,2.8,6.072l56,48c1.504,1.296,3.36,1.928,5.2,1.928    c2.248,0,4.496-0.952,6.072-2.792C120.952,265.856,120.568,260.8,117.208,257.928z"/><path d="M210.816,144.504c-4.144-1.536-8.752,0.536-10.304,4.68l-48,128c-1.544,4.136,0.544,8.744,4.68,10.304    C158.12,287.832,159.064,288,160,288c3.232,0,6.288-1.984,7.496-5.192l48-128C217.04,150.672,214.944,146.064,210.816,144.504z"/></g></defs><g fi:class="KUsePattern"><pattern id="pattern_L1_319" width="350" height="350" patternUnits="userSpaceOnUse"><use xlink:href="#L1_319" x="-350" y="-350"/><use xlink:href="#L1_319" x="0" y="-350"/><use xlink:href="#L1_319" x="350" y="-350"/><use xlink:href="#L1_319" x="-350" y="0"/><use xlink:href="#L1_319" x="0" y="0"/><use xlink:href="#L1_319" x="350" y="0"/><use xlink:href="#L1_319" x="-350" y="350"/><use xlink:href="#L1_319" x="0" y="350"/><use xlink:href="#L1_319" x="350" y="350"/></pattern><rect x="0" y="0" width="100%" height="100%" fill="url(#pattern_L1_319)"/></g><g fi:class="KUsePattern"><pattern id="pattern_L1_317" width="350" height="350" patternUnits="userSpaceOnUse"><use xlink:href="#L1_317" x="-350" y="-350"/><use xlink:href="#L1_317" x="0" y="-350"/><use xlink:href="#L1_317" x="350" y="-350"/><use xlink:href="#L1_317" x="-350" y="0"/><use xlink:href="#L1_317" x="0" y="0"/><use xlink:href="#L1_317" x="350" y="0"/><use xlink:href="#L1_317" x="-350" y="350"/><use xlink:href="#L1_317" x="0" y="350"/><use xlink:href="#L1_317" x="350" y="350"/></pattern><rect x="0" y="0" width="100%" height="100%" fill="url(#pattern_L1_317)"/></g><g fi:class="KUsePattern"><pattern id="pattern_L1_318" width="350" height="350" patternUnits="userSpaceOnUse"><use xlink:href="#L1_318" x="-350" y="-350"/><use xlink:href="#L1_318" x="0" y="-350"/><use xlink:href="#L1_318" x="350" y="-350"/><use xlink:href="#L1_318" x="-350" y="0"/><use xlink:href="#L1_318" x="0" y="0"/><use xlink:href="#L1_318" x="350" y="0"/><use xlink:href="#L1_318" x="-350" y="350"/><use xlink:href="#L1_318" x="0" y="350"/><use xlink:href="#L1_318" x="350" y="350"/></pattern><rect x="0" y="0" width="100%" height="100%" fill="url(#pattern_L1_318)"/></g><g fi:class="KUsePattern"><pattern id="pattern_L1_320" width="350" height="350" patternUnits="userSpaceOnUse"><use xlink:href="#L1_320" x="-350" y="-350"/><use xlink:href="#L1_320" x="0" y="-350"/><use xlink:href="#L1_320" x="350" y="-350"/><use xlink:href="#L1_320" x="-350" y="0"/><use xlink:href="#L1_320" x="0" y="0"/><use xlink:href="#L1_320" x="350" y="0"/><use xlink:href="#L1_320" x="-350" y="350"/><use xlink:href="#L1_320" x="0" y="350"/><use xlink:href="#L1_320" x="350" y="350"/></pattern><rect x="0" y="0" width="100%" height="100%" fill="url(#pattern_L1_320)"/></g><g fi:class="KUsePattern"><pattern id="pattern_L1_321" width="350" height="350" patternUnits="userSpaceOnUse"><use xlink:href="#L1_321" x="-350" y="-350"/><use xlink:href="#L1_321" x="0" y="-350"/><use xlink:href="#L1_321" x="350" y="-350"/><use xlink:href="#L1_321" x="-350" y="0"/><use xlink:href="#L1_321" x="0" y="0"/><use xlink:href="#L1_321" x="350" y="0"/><use xlink:href="#L1_321" x="-350" y="350"/><use xlink:href="#L1_321" x="0" y="350"/><use xlink:href="#L1_321" x="350" y="350"/></pattern><rect x="0" y="0" width="100%" height="100%" fill="url(#pattern_L1_321)"/></g><g fi:class="KUsePattern"><pattern id="pattern_L1_322" width="350" height="350" patternUnits="userSpaceOnUse"><use xlink:href="#L1_322" x="-350" y="-350"/><use xlink:href="#L1_322" x="0" y="-350"/><use xlink:href="#L1_322" x="350" y="-350"/><use xlink:href="#L1_322" x="-350" y="0"/><use xlink:href="#L1_322" x="0" y="0"/><use xlink:href="#L1_322" x="350" y="0"/><use xlink:href="#L1_322" x="-350" y="350"/><use xlink:href="#L1_322" x="0" y="350"/><use xlink:href="#L1_322" x="350" y="350"/></pattern><rect x="0" y="0" width="100%" height="100%" fill="url(#pattern_L1_322)"/></g><g fi:class="KUsePattern"><pattern id="pattern_L1_323" width="350" height="350" patternUnits="userSpaceOnUse"><use xlink:href="#L1_323" x="-350" y="-350"/><use xlink:href="#L1_323" x="0" y="-350"/><use xlink:href="#L1_323" x="350" y="-350"/><use xlink:href="#L1_323" x="-350" y="0"/><use xlink:href="#L1_323" x="0" y="0"/><use xlink:href="#L1_323" x="350" y="0"/><use xlink:href="#L1_323" x="-350" y="350"/><use xlink:href="#L1_323" x="0" y="350"/><use xlink:href="#L1_323" x="350" y="350"/></pattern><rect x="0" y="0" width="100%" height="100%" fill="url(#pattern_L1_323)"/></g><g fi:class="KUsePattern"><pattern id="pattern_L1_324" width="350" height="350" patternUnits="userSpaceOnUse"><use xlink:href="#L1_324" x="-350" y="-350"/><use xlink:href="#L1_324" x="0" y="-350"/><use xlink:href="#L1_324" x="350" y="-350"/><use xlink:href="#L1_324" x="-350" y="0"/><use xlink:href="#L1_324" x="0" y="0"/><use xlink:href="#L1_324" x="350" y="0"/><use xlink:href="#L1_324" x="-350" y="350"/><use xlink:href="#L1_324" x="0" y="350"/><use xlink:href="#L1_324" x="350" y="350"/></pattern><rect x="0" y="0" width="100%" height="100%" fill="url(#pattern_L1_324)"/></g></svg>