<svg xmlns="http://www.w3.org/2000/svg" xmlns:xlink="http://www.w3.org/1999/xlink" xmlns:fi="http://pattern.flaticon.com/" x="0" y="0" width="1200" height="1200" viewBox="0 0 8400 8400"><rect x="0px" y="0px" width="100%" height="100%" opacity="1" fill="#b65ca3"/><defs><path d="M165,0C74.019,0,0,74.019,0,165s74.019,165,165,165c90.982,0,165-74.019,165-165S255.982,0,165,0z" transform="matrix(0.03030303120613098 0 0 0.03030303120613098 345 82.5)" id="L1_349" fill="#aa92ce"/><g transform="matrix(0.054347824305295944 0 0 0.054347824305295944 340 165)" id="L1_346"><circle cx="184" cy="304" r="16"/><path d="M157.656,146.344l-32-32c-3.128-3.128-8.184-3.128-11.312,0s-3.128,8.184,0,11.312L140.688,152l-26.344,26.344    c-3.128,3.128-3.128,8.184,0,11.312c1.56,1.56,3.608,2.344,5.656,2.344c2.048,0,4.096-0.784,5.656-2.344l32-32    C160.784,154.528,160.784,149.472,157.656,146.344z"/><path d="M248,176h-64c-4.416,0-8,3.584-8,8s3.584,8,8,8h64c4.416,0,8-3.584,8-8C256,179.584,252.416,176,248,176z"/><path d="M248,128h-48c-4.416,0-8,3.584-8,8s3.584,8,8,8h48c4.416,0,8-3.584,8-8S252.416,128,248,128z"/><path d="M248,224H120c-4.416,0-8,3.584-8,8c0,4.416,3.584,8,8,8h128c4.416,0,8-3.584,8-8C256,227.584,252.416,224,248,224z"/><path d="M263.968,0C262.488,0,104,0,104,0s0,0-0.008,0c-10.68,0-20.72,4.16-28.272,11.712S64,29.32,64,40v15.984    c0,0.008,0,0.008,0,0.016s0,0.008,0,0.016V328c0,22.056,17.944,40,40,40h160c22.056,0,40-17.944,40-40V40    C304,17.944,286.056,0,263.968,0z M80,40c0-6.408,2.496-12.44,7.032-16.968C91.56,18.504,97.584,16,103.992,16h80    c53.232,0,72.456,0,80-0.616V16c13.232,0,24,10.768,24,24v8H80V40z M288,328c0,13.232-10.768,24-24,24H104    c-13.232,0-24-10.768-24-24V64h208V328z"/></g><g transform="matrix(0.10869564861059189 0 0 0.10869564861059189 242.5 67.5)" id="L1_347"><path d="M360.976,23.024C356.44,18.496,350.408,16,344,16H24h-0.008C10.768,16,0,26.76,0,39.992V328c0,13.232,10.768,24,24,24h320    c6.408,0,12.44-2.496,16.976-7.032C365.504,340.432,368,334.408,368,328V192.016c0-0.008,0-0.016,0-0.016v-0.016v-55.96    c0-0.008,0-0.016,0-0.016v-0.016v-47.96c0-0.016,0-0.024,0-0.032s0-0.016,0-0.016V40C368,33.592,365.504,27.56,360.976,23.024z     M16,248h112v40H16V248z M352,184H240v-40h112V184z M352,128H232c-4.416,0-8,3.584-8,8v56c0,4.416,3.584,8,8,8h120v128    c0,2.136-0.832,4.144-2.344,5.656c-1.512,1.512-3.52,2.344-5.656,2.344H24c-4.408,0-8-3.592-8-8v-24h120c4.416,0,8-3.584,8-8v-56    c0-4.416-3.584-8-8-8H16V96h336V128z M352,80H16V40c0-4.416,3.584-8,8-8h320c2.136,0,4.144,0.832,5.656,2.344    C351.168,35.848,352,37.856,352,40V80z"/><path d="M104,128H56c-4.416,0-8,3.584-8,8v56c0,4.416,3.584,8,8,8h48c4.416,0,8-3.584,8-8v-56C112,131.584,108.416,128,104,128z     M96,184H64v-40h32V184z"/><path d="M312,232h-48c-4.416,0-8,3.584-8,8v56c0,4.416,3.584,8,8,8h48c4.416,0,8-3.584,8-8v-56C320,235.584,316.416,232,312,232z     M304,288h-32v-40h32V288z"/><path d="M184,128h-32c-4.416,0-8,3.584-8,8s3.584,8,8,8h24v48c0,4.416,3.584,8,8,8s8-3.584,8-8v-56    C192,131.584,188.416,128,184,128z"/><path d="M216,232h-32c-4.416,0-8,3.584-8,8c0,4.416,3.584,8,8,8h24v48c0,4.416,3.584,8,8,8c4.416,0,8-3.584,8-8v-56    C224,235.584,220.416,232,216,232z"/></g><g transform="matrix(0.054347824305295944 0 0 0.054347824305295944 165 165)" id="L1_348"><path d="M360.976,71.024C356.44,66.496,350.416,64,344,64h-24V24c0-13.232-10.768-24-24-24H72C58.768,0,48,10.768,48,24v40H24    C10.768,64,0,74.768,0,88h0.584C0,93.736,0,103.584,0,120.504V296c0,13.232,10.776,24,24,24h88.88    C102.48,330.176,96,344.336,96,360c0,4.416,3.584,8,8,8h160c4.416,0,8-3.584,8-8c0-15.664-6.48-29.824-16.88-40H344    c6.408,0,12.44-2.496,16.968-7.032C365.504,308.44,368,302.408,368,296V88C368,81.592,365.504,75.56,360.976,71.024z M64,24    c0-4.408,3.592-8,8-8h224c4.408,0,8,3.592,8,8v24H64V24z M64,64h240v184c0,4.416-3.592,8-8,8H72c-4.408,0-8-3.592-8-8V64z     M255.2,352H112.808c3.712-18.232,19.88-32,39.192-32h64C235.32,320,251.488,333.768,255.2,352z M352,296    c0,2.136-0.832,4.144-2.336,5.656c-1.512,1.512-3.52,2.344-5.664,2.344H216h-64H24c-4.408,0-8-3.592-8-8c0,0,0-206.352,0-208    c0-4.408,3.584-8,8-8h24v168c0,13.232,10.768,24,24,24h224c13.232,0,24-10.768,24-24V80h24c2.136,0,4.144,0.832,5.656,2.344    C351.168,83.848,352,85.856,352,88V296z"/><path d="M195.312,160l50.344-50.344c3.128-3.128,3.128-8.184,0-11.312s-8.184-3.128-11.312,0L184,148.688l-50.344-50.344    c-3.128-3.128-8.184-3.128-11.312,0s-3.128,8.184,0,11.312L172.688,160l-50.344,50.344c-3.128,3.128-3.128,8.184,0,11.312    c1.56,1.56,3.608,2.344,5.656,2.344c2.048,0,4.096-0.784,5.656-2.344L184,171.312l50.344,50.344    c1.56,1.56,3.608,2.344,5.656,2.344c2.048,0,4.096-0.784,5.656-2.344c3.128-3.128,3.128-8.184,0-11.312L195.312,160z"/></g><path d="M165,0C74.019,0,0,74.019,0,165s74.019,165,165,165c90.982,0,165-74.019,165-165S255.982,0,165,0z" transform="matrix(0.03030303120613098 0 0 0.03030303120613098 82.5 257.5)" id="L1_350" fill="#244493"/><g transform="matrix(-0.16304348409175873 0 0 0.16304348409175873 205.0000021457672 232.5)" id="L1_351"><circle cx="184" cy="304" r="16"/><path d="M157.656,146.344l-32-32c-3.128-3.128-8.184-3.128-11.312,0s-3.128,8.184,0,11.312L140.688,152l-26.344,26.344    c-3.128,3.128-3.128,8.184,0,11.312c1.56,1.56,3.608,2.344,5.656,2.344c2.048,0,4.096-0.784,5.656-2.344l32-32    C160.784,154.528,160.784,149.472,157.656,146.344z"/><path d="M248,176h-64c-4.416,0-8,3.584-8,8s3.584,8,8,8h64c4.416,0,8-3.584,8-8C256,179.584,252.416,176,248,176z"/><path d="M248,128h-48c-4.416,0-8,3.584-8,8s3.584,8,8,8h48c4.416,0,8-3.584,8-8S252.416,128,248,128z"/><path d="M248,224H120c-4.416,0-8,3.584-8,8c0,4.416,3.584,8,8,8h128c4.416,0,8-3.584,8-8C256,227.584,252.416,224,248,224z"/><path d="M263.968,0C262.488,0,104,0,104,0s0,0-0.008,0c-10.68,0-20.72,4.16-28.272,11.712S64,29.32,64,40v15.984    c0,0.008,0,0.008,0,0.016s0,0.008,0,0.016V328c0,22.056,17.944,40,40,40h160c22.056,0,40-17.944,40-40V40    C304,17.944,286.056,0,263.968,0z M80,40c0-6.408,2.496-12.44,7.032-16.968C91.56,18.504,97.584,16,103.992,16h80    c53.232,0,72.456,0,80-0.616V16c13.232,0,24,10.768,24,24v8H80V40z M288,328c0,13.232-10.768,24-24,24H104    c-13.232,0-24-10.768-24-24V64h208V328z"/></g><path d="M256.176,64.088h104c4.424,0,8-3.584,8-8v-48c0-4.416-3.584-8-8-8h-104c-4.424,0-8,3.584-8,8v16h-64c-4.416,0-8,3.584-8,8    v144h-48v-16v-24c0-4.416-3.584-8-8-8s-8,3.584-8,8v16h-78.92C32.872,152.032,32.48,152,32.088,152C14.4,152,0,166.392,0,184.088    s14.392,32.088,32.088,32.088c0.4,0,0.792-0.032,1.176-0.088h78.912v16c0,4.416,3.584,8,8,8s8-3.584,8-8v-24v-16h48v144    c0,4.416,3.584,8,8,8h64v16c0,4.416,3.576,8,8,8h104c4.424,0,8-3.584,8-8v-48c0-4.416-3.576-8-8-8h-104c-4.424,0-8,3.584-8,8v16    h-56v-80h56v16c0,4.416,3.576,8,8,8h104c4.424,0,8-3.584,8-8v-48c0-4.416-3.576-8-8-8h-104c-4.424,0-8,3.584-8,8v16h-56v-96h56v16    c0,4.416,3.576,8,8,8h104c4.424,0,8-3.584,8-8v-48c0-4.416-3.576-8-8-8h-104c-4.424,0-8,3.584-8,8v16h-56v-80h56v16    C248.176,60.504,251.752,64.088,256.176,64.088z M264.176,16.088h88v32h-88V16.088z M112.176,200.088h-80    c-0.336,0-0.664,0.016-0.992,0.064c-8.448-0.472-15.176-7.496-15.176-16.064s6.736-15.592,15.184-16.064    c0.32,0.048,0.648,0.064,0.984,0.064h80V200.088z M264.176,320.088h88v32h-88V320.088z M264.176,224.088h88v32h-88V224.088z     M264.176,112.088h88v32h-88V112.088z" transform="matrix(0.24444830417633057 0 0 0.24444830417633057 305 305)" id="L1_352"/><path d="M256.176,64.088h104c4.424,0,8-3.584,8-8v-48c0-4.416-3.584-8-8-8h-104c-4.424,0-8,3.584-8,8v16h-64c-4.416,0-8,3.584-8,8    v144h-48v-16v-24c0-4.416-3.584-8-8-8s-8,3.584-8,8v16h-78.92C32.872,152.032,32.48,152,32.088,152C14.4,152,0,166.392,0,184.088    s14.392,32.088,32.088,32.088c0.4,0,0.792-0.032,1.176-0.088h78.912v16c0,4.416,3.584,8,8,8s8-3.584,8-8v-24v-16h48v144    c0,4.416,3.584,8,8,8h64v16c0,4.416,3.576,8,8,8h104c4.424,0,8-3.584,8-8v-48c0-4.416-3.576-8-8-8h-104c-4.424,0-8,3.584-8,8v16    h-56v-80h56v16c0,4.416,3.576,8,8,8h104c4.424,0,8-3.584,8-8v-48c0-4.416-3.576-8-8-8h-104c-4.424,0-8,3.584-8,8v16h-56v-96h56v16    c0,4.416,3.576,8,8,8h104c4.424,0,8-3.584,8-8v-48c0-4.416-3.576-8-8-8h-104c-4.424,0-8,3.584-8,8v16h-56v-80h56v16    C248.176,60.504,251.752,64.088,256.176,64.088z M264.176,16.088h88v32h-88V16.088z M112.176,200.088h-80    c-0.336,0-0.664,0.016-0.992,0.064c-8.448-0.472-15.176-7.496-15.176-16.064s6.736-15.592,15.184-16.064    c0.32,0.048,0.648,0.064,0.984,0.064h80V200.088z M264.176,320.088h88v32h-88V320.088z M264.176,224.088h88v32h-88V224.088z     M264.176,112.088h88v32h-88V112.088z" transform="matrix(-0.1629655361175537 0 0 0.1629655361175537 117.47131729125977 57.49999896555079)" id="L1_353"/></defs><g fi:class="KUsePattern"><pattern id="pattern_L1_349" width="350" height="350" patternUnits="userSpaceOnUse"><use xlink:href="#L1_349" x="-350" y="-350"/><use xlink:href="#L1_349" x="0" y="-350"/><use xlink:href="#L1_349" x="350" y="-350"/><use xlink:href="#L1_349" x="-350" y="0"/><use xlink:href="#L1_349" x="0" y="0"/><use xlink:href="#L1_349" x="350" y="0"/><use xlink:href="#L1_349" x="-350" y="350"/><use xlink:href="#L1_349" x="0" y="350"/><use xlink:href="#L1_349" x="350" y="350"/></pattern><rect x="0" y="0" width="100%" height="100%" fill="url(#pattern_L1_349)"/></g><g fi:class="KUsePattern"><pattern id="pattern_L1_346" width="350" height="350" patternUnits="userSpaceOnUse"><use xlink:href="#L1_346" x="-350" y="-350"/><use xlink:href="#L1_346" x="0" y="-350"/><use xlink:href="#L1_346" x="350" y="-350"/><use xlink:href="#L1_346" x="-350" y="0"/><use xlink:href="#L1_346" x="0" y="0"/><use xlink:href="#L1_346" x="350" y="0"/><use xlink:href="#L1_346" x="-350" y="350"/><use xlink:href="#L1_346" x="0" y="350"/><use xlink:href="#L1_346" x="350" y="350"/></pattern><rect x="0" y="0" width="100%" height="100%" fill="url(#pattern_L1_346)"/></g><g fi:class="KUsePattern"><pattern id="pattern_L1_347" width="350" height="350" patternUnits="userSpaceOnUse"><use xlink:href="#L1_347" x="-350" y="-350"/><use xlink:href="#L1_347" x="0" y="-350"/><use xlink:href="#L1_347" x="350" y="-350"/><use xlink:href="#L1_347" x="-350" y="0"/><use xlink:href="#L1_347" x="0" y="0"/><use xlink:href="#L1_347" x="350" y="0"/><use xlink:href="#L1_347" x="-350" y="350"/><use xlink:href="#L1_347" x="0" y="350"/><use xlink:href="#L1_347" x="350" y="350"/></pattern><rect x="0" y="0" width="100%" height="100%" fill="url(#pattern_L1_347)"/></g><g fi:class="KUsePattern"><pattern id="pattern_L1_348" width="350" height="350" patternUnits="userSpaceOnUse"><use xlink:href="#L1_348" x="-350" y="-350"/><use xlink:href="#L1_348" x="0" y="-350"/><use xlink:href="#L1_348" x="350" y="-350"/><use xlink:href="#L1_348" x="-350" y="0"/><use xlink:href="#L1_348" x="0" y="0"/><use xlink:href="#L1_348" x="350" y="0"/><use xlink:href="#L1_348" x="-350" y="350"/><use xlink:href="#L1_348" x="0" y="350"/><use xlink:href="#L1_348" x="350" y="350"/></pattern><rect x="0" y="0" width="100%" height="100%" fill="url(#pattern_L1_348)"/></g><g fi:class="KUsePattern"><pattern id="pattern_L1_350" width="350" height="350" patternUnits="userSpaceOnUse"><use xlink:href="#L1_350" x="-350" y="-350"/><use xlink:href="#L1_350" x="0" y="-350"/><use xlink:href="#L1_350" x="350" y="-350"/><use xlink:href="#L1_350" x="-350" y="0"/><use xlink:href="#L1_350" x="0" y="0"/><use xlink:href="#L1_350" x="350" y="0"/><use xlink:href="#L1_350" x="-350" y="350"/><use xlink:href="#L1_350" x="0" y="350"/><use xlink:href="#L1_350" x="350" y="350"/></pattern><rect x="0" y="0" width="100%" height="100%" fill="url(#pattern_L1_350)"/></g><g fi:class="KUsePattern"><pattern id="pattern_L1_351" width="350" height="350" patternUnits="userSpaceOnUse"><use xlink:href="#L1_351" x="-350" y="-350"/><use xlink:href="#L1_351" x="0" y="-350"/><use xlink:href="#L1_351" x="350" y="-350"/><use xlink:href="#L1_351" x="-350" y="0"/><use xlink:href="#L1_351" x="0" y="0"/><use xlink:href="#L1_351" x="350" y="0"/><use xlink:href="#L1_351" x="-350" y="350"/><use xlink:href="#L1_351" x="0" y="350"/><use xlink:href="#L1_351" x="350" y="350"/></pattern><rect x="0" y="0" width="100%" height="100%" fill="url(#pattern_L1_351)"/></g><g fi:class="KUsePattern"><pattern id="pattern_L1_352" width="350" height="350" patternUnits="userSpaceOnUse"><use xlink:href="#L1_352" x="-350" y="-350"/><use xlink:href="#L1_352" x="0" y="-350"/><use xlink:href="#L1_352" x="350" y="-350"/><use xlink:href="#L1_352" x="-350" y="0"/><use xlink:href="#L1_352" x="0" y="0"/><use xlink:href="#L1_352" x="350" y="0"/><use xlink:href="#L1_352" x="-350" y="350"/><use xlink:href="#L1_352" x="0" y="350"/><use xlink:href="#L1_352" x="350" y="350"/></pattern><rect x="0" y="0" width="100%" height="100%" fill="url(#pattern_L1_352)"/></g><g fi:class="KUsePattern"><pattern id="pattern_L1_353" width="350" height="350" patternUnits="userSpaceOnUse"><use xlink:href="#L1_353" x="-350" y="-350"/><use xlink:href="#L1_353" x="0" y="-350"/><use xlink:href="#L1_353" x="350" y="-350"/><use xlink:href="#L1_353" x="-350" y="0"/><use xlink:href="#L1_353" x="0" y="0"/><use xlink:href="#L1_353" x="350" y="0"/><use xlink:href="#L1_353" x="-350" y="350"/><use xlink:href="#L1_353" x="0" y="350"/><use xlink:href="#L1_353" x="350" y="350"/></pattern><rect x="0" y="0" width="100%" height="100%" fill="url(#pattern_L1_353)"/></g></svg>