<svg width="799" height="690" viewBox="0 0 799 690" fill="none" xmlns="http://www.w3.org/2000/svg">
<rect width="799" height="690" fill="#E5E5E5"/>
<g id="coder-about-dark 1">
<path id="Vector" d="M94.5801 230.113C138.399 230.113 173.921 194.591 173.921 150.773C173.921 106.954 138.399 71.4324 94.5801 71.4324C50.7616 71.4324 15.2397 106.954 15.2397 150.773C15.2397 194.591 50.7616 230.113 94.5801 230.113Z" fill="#F9A826"/>
<path id="Vector_2" d="M122.229 56.49C115.045 55.5764 107.775 55.5764 100.591 56.49C84.5863 58.5914 69.5206 65.2399 57.1812 75.6466C44.8419 86.0533 35.747 99.7814 30.9756 115.202C28.8056 122.229 27.5767 129.514 27.3211 136.864C27.2851 137.886 27.261 138.92 27.261 139.954C27.2833 162.265 36.1561 183.655 51.9323 199.431C67.7084 215.208 89.0991 224.08 111.41 224.103C113.201 224.103 114.992 224.043 116.759 223.934C120.908 223.674 125.03 223.103 129.093 222.227C148.495 218.055 165.798 207.161 177.947 191.468C190.096 175.776 196.308 156.295 195.487 136.467C194.666 116.638 186.864 97.7381 173.459 83.104C160.054 68.4699 141.909 59.0436 122.229 56.49H122.229ZM137.748 217.347H137.736C130.959 219.659 123.905 221.062 116.759 221.518C114.992 221.638 113.201 221.698 111.41 221.698C89.738 221.672 68.9613 213.051 53.6369 197.727C38.3126 182.402 29.6917 161.626 29.6652 139.954C29.6652 138.92 29.6892 137.886 29.7253 136.864C30.5517 115.744 39.5159 95.7617 54.7414 81.1009C69.9669 66.4401 90.2733 58.2371 111.41 58.209C130.776 58.2101 149.513 65.0866 164.283 77.6132C179.052 90.1399 188.895 107.503 192.057 126.61C195.22 145.716 191.496 165.325 181.55 181.942C171.604 198.559 156.082 211.106 137.748 217.347H137.748Z" fill="#3F3D56"/>
<path id="Vector_3" d="M112.612 63.0175H110.208V79.8473H112.612V63.0175Z" fill="#3F3D56"/>
<path id="Vector_4" d="M57.8578 84.7016L56.1577 86.4017L68.0582 98.3021L69.7583 96.6021L57.8578 84.7016Z" fill="#3F3D56"/>
<path id="Vector_5" d="M34.4737 138.752V141.156H51.3035V138.752H34.4737Z" fill="#3F3D56"/>
<path id="Vector_6" d="M56.1577 193.506L57.8578 195.206L69.7583 183.305L68.0582 181.605L56.1577 193.506Z" fill="#3F3D56"/>
<path id="Vector_7" d="M153.061 96.6021L154.762 98.3021L166.662 86.4017L164.962 84.7016L153.061 96.6021Z" fill="#3F3D56"/>
<path id="Vector_8" d="M171.516 138.752V141.156H188.346V138.752H171.516Z" fill="#3F3D56"/>
<path id="Vector_9" d="M154.762 181.605L153.061 183.305L164.962 195.206L166.662 193.506L154.762 181.605Z" fill="#3F3D56"/>
<path id="Vector_10" d="M112.612 200.06H110.208V216.89H112.612V200.06Z" fill="#3F3D56"/>
<path id="Vector_11" d="M115.016 135.145C113.976 134.365 112.71 133.943 111.41 133.943C110.109 133.943 108.844 134.365 107.803 135.145C107.091 135.686 106.505 136.375 106.085 137.165C105.552 138.181 105.322 139.329 105.421 140.473C105.52 141.616 105.944 142.707 106.643 143.617C107.343 144.527 108.288 145.218 109.368 145.608C110.447 145.998 111.616 146.07 112.735 145.817C113.855 145.564 114.878 144.996 115.685 144.179C116.492 143.363 117.048 142.333 117.288 141.211C117.528 140.088 117.441 138.921 117.039 137.846C116.636 136.771 115.934 135.834 115.016 135.145H115.016ZM111.41 143.56C110.454 143.557 109.539 143.176 108.863 142.501C108.187 141.825 107.806 140.909 107.803 139.954C107.808 139.224 108.03 138.513 108.441 137.91C108.793 137.4 109.271 136.989 109.828 136.718C110.386 136.447 111.004 136.324 111.622 136.361C112.241 136.398 112.84 136.595 113.361 136.931C113.881 137.267 114.306 137.732 114.595 138.281C114.883 138.83 115.025 139.444 115.007 140.063C114.988 140.683 114.811 141.288 114.49 141.818C114.17 142.349 113.718 142.788 113.179 143.094C112.639 143.399 112.03 143.559 111.41 143.56V143.56Z" fill="#3F3D56"/>
<path id="Vector_12" d="M122.229 35.3686H100.591V57.0069H122.229V35.3686Z" fill="#3F3D56"/>
<path id="Vector_13" d="M111.41 38.975C127.344 38.975 140.261 34.4002 140.261 28.7569C140.261 23.1136 127.344 18.5388 111.41 18.5388C95.4759 18.5388 82.5588 23.1136 82.5588 28.7569C82.5588 34.4002 95.4759 38.975 111.41 38.975Z" fill="#3F3D56"/>
<path id="clock-arrow" d="M115.016 94.2729H107.803V135.145H115.016V94.2729Z" fill="#3F3D56"/>
<path id="Vector_14" d="M226 220.44H0V222.844H226V220.44Z" fill="#3F3D56"/>
</g>
</svg>
